<svg xmlns="http://www.w3.org/2000/svg" width="1152" height="949" fill="none"><path d="M575 127c-42.8-16.4-78.5-99.5-91-139h686.5v396.5c-9-1.3-32.3-7.5-53.5-21.5-26.5-17.5-109.5-119-286-177s-202.5-38.5-256-59z" fill="#f8c753"/><path d="M86 126c-73.5 3.5-119.5-15.5-155-27l29 405c92 26 156.5-36 178-55.5s62.5-108 87.5-152.5S268 226.5 242 165s-82.5-42.5-156-39z" fill="#378bcb"/><path d="M175.5 555C69.5 591 0 768 22.5 874.5s162.5 69 403 62.5 333-113.5 392.5-229.5S779 444 710.5 519s-186 69.5-294.5 36-134.5-36-240.5 0z" fill="#d42f2a"/></svg>