<svg width="20" height="20" viewBox="0 0 20 20" fill="none" xmlns="http://www.w3.org/2000/svg">
<path d="M6.94815 19.701C6.91687 19.8557 7.03657 20 7.19617 20H12.8038C12.9634 20 13.0831 19.8557 13.0519 19.701L11.8391 13.7026C11.7913 13.4662 12.0764 13.3065 12.2571 13.4685L16.77 17.5162C16.8902 17.624 17.0805 17.5936 17.1602 17.4539L19.9673 12.5355C20.045 12.3992 19.9785 12.2266 19.8287 12.1761L14.0787 10.2365C13.8504 10.1595 13.8504 9.84034 14.0787 9.76333L19.8286 7.82394C19.9785 7.7734 20.045 7.60079 19.9673 7.4645L17.1602 2.54609C17.0805 2.40638 16.8902 2.37599 16.77 2.48378L12.2571 6.53136C12.0764 6.69338 11.7913 6.53366 11.8391 6.29722L13.0519 0.298993C13.0831 0.144305 12.9634 0 12.8038 0H7.19617C7.03657 0 6.91687 0.144305 6.94815 0.298993L8.16085 6.29709C8.20866 6.53353 7.92353 6.69325 7.74288 6.53122L3.23 2.48377C3.10982 2.37598 2.91949 2.40637 2.83976 2.54608L0.0327475 7.4645C-0.0450333 7.60079 0.0215318 7.7734 0.171355 7.82394L5.92131 9.76333C6.14963 9.84034 6.14964 10.1595 5.92132 10.2365L0.171348 12.1761C0.0215274 12.2266 -0.0450354 12.3992 0.0327444 12.5355L2.83976 17.4539C2.91949 17.5936 3.10982 17.624 3.23001 17.5162L7.74291 13.4686C7.92356 13.3066 8.20869 13.4663 8.16089 13.7028L6.94815 19.701Z" fill="#EAE8E3"/>
</svg>
